OFF
66 128 0
0.5 -0.5 0
0.5 0.5 0
0.490393 -0.5 0.0975452
0.490393 0.5 0.0975452
0.46194 -0.5 0.191342
0.46194 0.5 0.191342
0.415735 -0.5 0.277785
0.415735 0.5 0.277785
0.353553 -0.5 0.353553
0.353553 0.5 0.353553
0.277785 -0.5 0.415735
0.277785 0.5 0.415735
0.191342 -0.5 0.46194
0.191342 0.5 0.46194
0.0975452 -0.5 0.490393
0.0975452 0.5 0.490393
-2.18557e-08 -0.5 0.5
-2.18557e-08 0.5 0.5
-0.0975452 -0.5 0.490393
-0.0975452 0.5 0.490393
-0.191342 -0.5 0.46194
-0.191342 0.5 0.46194
-0.277785 -0.5 0.415735
-0.277785 0.5 0.415735
-0.353553 -0.5 0.353553
-0.353553 0.5 0.353553
-0.415735 -0.5 0.277785
-0.415735 0.5 0.277785
-0.46194 -0.5 0.191342
-0.46194 0.5 0.191342
-0.490393 -0.5 0.0975452
-0.490393 0.5 0.0975452
-0.5 -0.5 -4.37114e-08
-0.5 0.5 -4.37114e-08
-0.490393 -0.5 -0.0975451
-0.490393 0.5 -0.0975451
-0.46194 -0.5 -0.191342
-0.46194 0.5 -0.191342
-0.415735 -0.5 -0.277785
-0.415735 0.5 -0.277785
-0.353553 -0.5 -0.353553
-0.353553 0.5 -0.353553
-0.277785 -0.5 -0.415735
-0.277785 0.5 -0.415735
-0.191342 -0.5 -0.46194
-0.191342 0.5 -0.46194
-0.0975452 -0.5 -0.490393
-0.0975452 0.5 -0.490393
5.96244e-09 -0.5 -0.5
5.96244e-09 0.5 -0.5
0.0975452 -0.5 -0.490393
0.0975452 0.5 -0.490393
0.191342 -0.5 -0.46194
0.191342 0.5 -0.46194
0.277785 -0.5 -0.415735
0.277785 0.5 -0.415735
0.353553 -0.5 -0.353553
0.353553 0.5 -0.353553
0.415735 -0.5 -0.277785
0.415735 0.5 -0.277785
0.46194 -0.5 -0.191342
0.46194 0.5 -0.191342
0.490393 -0.5 -0.0975451
0.490393 0.5 -0.0975451
0 -0.5 0
0 0.5 0
3 0 1 3
3 0 3 2
3 2 3 5
3 2 5 4
3 4 5 7
3 4 7 6
3 6 7 9
3 6 9 8
3 8 9 11
3 8 11 10
3 10 11 13
3 10 13 12
3 12 13 15
3 12 15 14
3 14 15 17
3 14 17 16
3 16 17 19
3 16 19 18
3 18 19 21
3 18 21 20
3 20 21 23
3 20 23 22
3 22 23 25
3 22 25 24
3 24 25 27
3 24 27 26
3 26 27 29
3 26 29 28
3 28 29 31
3 28 31 30
3 30 31 33
3 30 33 32
3 32 33 35
3 32 35 34
3 34 35 37
3 34 37 36
3 36 37 39
3 36 39 38
3 38 39 41
3 38 41 40
3 40 41 43
3 40 43 42
3 42 43 45
3 42 45 44
3 44 45 47
3 44 47 46
3 46 47 49
3 46 49 48
3 48 49 51
3 48 51 50
3 50 51 53
3 50 53 52
3 52 53 55
3 52 55 54
3 54 55 57
3 54 57 56
3 56 57 59
3 56 59 58
3 58 59 61
3 58 61 60
3 60 61 63
3 60 63 62
3 62 63 1
3 62 1 0
3 64 2 0
3 65 1 3
3 64 4 2
3 65 3 5
3 64 6 4
3 65 5 7
3 64 8 6
3 65 7 9
3 64 10 8
3 65 9 11
3 64 12 10
3 65 11 13
3 64 14 12
3 65 13 15
3 64 16 14
3 65 15 17
3 64 18 16
3 65 17 19
3 64 20 18
3 65 19 21
3 64 22 20
3 65 21 23
3 64 24 22
3 65 23 25
3 64 26 24
3 65 25 27
3 64 28 26
3 65 27 29
3 64 30 28
3 65 29 31
3 64 32 30
3 65 31 33
3 64 34 32
3 65 33 35
3 64 36 34
3 65 35 37
3 64 38 36
3 65 37 39
3 64 40 38
3 65 39 41
3 64 42 40
3 65 41 43
3 64 44 42
3 65 43 45
3 64 46 44
3 65 45 47
3 64 48 46
3 65 47 49
3 64 50 48
3 65 49 51
3 64 52 50
3 65 51 53
3 64 54 52
3 65 53 55
3 64 56 54
3 65 55 57
3 64 58 56
3 65 57 59
3 64 60 58
3 65 59 61
3 64 62 60
3 65 61 63
3 64 0 62
3 65 63 1
